<mxfile host="drawio-plugin" modified="2023-06-18T16:14:05.783Z" agent="5.0 (Windows NT 6.2; Win64; x64) AppleWebKit/537.36 (KHTML, like Gecko) Chrome/87.0.4280.141 Safari/537.36" version="13.7.9" etag="hS3RVKB0hjBnDJRnc4Xe" type="embed"><diagram id="lMCECdiOliHJ0kIxP1SO" name="Page-1"><mxGraphModel dx="614" dy="-16011" grid="0" gridSize="10" guides="1" tooltips="1" connect="1" arrows="1" fold="1" page="1" pageScale="1" pageWidth="850" pageHeight="1100" background="#ffffff" math="0" shadow="0"><root><mxCell id="0"/><mxCell id="1" parent="0"/><mxCell id="26" value="" style="group;direction=east;rotation=0;" vertex="1" connectable="0" parent="1"><mxGeometry x="101.50000000000003" y="16588" width="87.00000000000003" height="60" as="geometry"/></mxCell><mxCell id="15" value="11" style="rounded=0;whiteSpace=wrap;html=1;sketch=0;fillColor=#fad9d5;strokeColor=#ae4132;fontColor=#000000;fontSize=20;fontStyle=1;direction=east;rotation=0;" vertex="1" parent="26"><mxGeometry width="87" height="60" as="geometry"/></mxCell><mxCell id="25" value="&lt;font color=&quot;#000000&quot;&gt;&lt;b&gt;3&lt;/b&gt;&lt;/font&gt;" style="rounded=0;whiteSpace=wrap;html=1;fillColor=#f8cecc;strokeColor=#b85450;direction=east;rotation=0;" vertex="1" parent="26"><mxGeometry x="2" y="43" width="84.5" height="17" as="geometry"/></mxCell><mxCell id="27" value="1" style="group;direction=east;rotation=0;" vertex="1" connectable="0" parent="1"><mxGeometry x="102.50000000000003" y="16702" width="84.50000000000003" height="60" as="geometry"/></mxCell><mxCell id="7" value="3" style="rounded=0;whiteSpace=wrap;html=1;sketch=0;fillColor=#fad9d5;strokeColor=#ae4132;fontColor=#000000;fontSize=20;fontStyle=1;direction=east;rotation=0;" vertex="1" parent="27"><mxGeometry width="84.5" height="60" as="geometry"/></mxCell><mxCell id="24" value="&lt;font color=&quot;#000000&quot;&gt;&lt;b&gt;1&lt;/b&gt;&lt;/font&gt;" style="rounded=0;whiteSpace=wrap;html=1;fillColor=#f8cecc;strokeColor=#b85450;direction=east;rotation=0;" vertex="1" parent="27"><mxGeometry y="43" width="84.5" height="17" as="geometry"/></mxCell><mxCell id="28" value="" style="group;direction=east;rotation=0;" vertex="1" connectable="0" parent="1"><mxGeometry x="101.50000000000003" y="16808" width="86.00000000000003" height="60" as="geometry"/></mxCell><mxCell id="8" value="23" style="rounded=0;whiteSpace=wrap;html=1;sketch=0;fillColor=#fad9d5;strokeColor=#ae4132;fontColor=#000000;fontSize=20;fontStyle=1;direction=east;rotation=0;" vertex="1" parent="28"><mxGeometry x="1" width="85" height="60" as="geometry"/></mxCell><mxCell id="23" value="&lt;font color=&quot;#000000&quot;&gt;&lt;b&gt;2&lt;/b&gt;&lt;/font&gt;" style="rounded=0;whiteSpace=wrap;html=1;fillColor=#f8cecc;strokeColor=#b85450;direction=east;rotation=0;" vertex="1" parent="28"><mxGeometry x="2" y="43" width="84.5" height="17" as="geometry"/></mxCell><mxCell id="29" value="" style="group;direction=east;rotation=-180;" vertex="1" connectable="0" parent="1"><mxGeometry x="101.50000000000003" y="16911" width="86.00000000000003" height="60" as="geometry"/></mxCell><mxCell id="35" value="" style="group;rotation=-180;" vertex="1" connectable="0" parent="29"><mxGeometry x="-7.105427357601002e-15" y="-5.329070518200751e-15" width="85" height="60.00000000000001" as="geometry"/></mxCell><mxCell id="11" value="7" style="rounded=0;whiteSpace=wrap;html=1;sketch=0;fillColor=#fad9d5;strokeColor=#ae4132;fontColor=#000000;fontSize=20;fontStyle=1;direction=west;rotation=-360;" vertex="1" parent="35"><mxGeometry width="85" height="60" as="geometry"/></mxCell><mxCell id="22" value="&lt;font color=&quot;#000000&quot;&gt;&lt;b&gt;3&lt;/b&gt;&lt;/font&gt;" style="rounded=0;whiteSpace=wrap;html=1;fillColor=#f8cecc;strokeColor=#b85450;direction=east;rotation=-360;" vertex="1" parent="35"><mxGeometry y="43" width="84.5" height="17" as="geometry"/></mxCell><mxCell id="30" style="edgeStyle=orthogonalEdgeStyle;rounded=0;orthogonalLoop=1;jettySize=auto;html=1;strokeColor=#000000;sketch=1;entryX=0.5;entryY=1;entryDx=0;entryDy=0;startArrow=classic;startFill=1;endArrow=none;endFill=0;" edge="1" parent="1" source="11" target="23"><mxGeometry x="101.50000000000003" y="16588" as="geometry"/></mxCell><mxCell id="32" style="edgeStyle=orthogonalEdgeStyle;rounded=0;sketch=1;orthogonalLoop=1;jettySize=auto;html=1;strokeColor=#000000;entryX=0.5;entryY=1;entryDx=0;entryDy=0;startArrow=classic;startFill=1;endArrow=none;endFill=0;" edge="1" parent="1" source="8" target="24"><mxGeometry x="101.50000000000003" y="16588" as="geometry"/></mxCell><mxCell id="33" style="edgeStyle=orthogonalEdgeStyle;rounded=0;sketch=1;orthogonalLoop=1;jettySize=auto;html=1;strokeColor=#000000;entryX=0.5;entryY=1;entryDx=0;entryDy=0;startArrow=classic;startFill=1;endArrow=none;endFill=0;" edge="1" parent="1" source="7" target="25"><mxGeometry x="101.50000000000003" y="16588" as="geometry"/></mxCell><mxCell id="36" value="&lt;span style=&quot;font-size: 14px;&quot;&gt;&lt;font color=&quot;#000000&quot; style=&quot;font-size: 14px;&quot;&gt;NULL&lt;/font&gt;&lt;/span&gt;" style="text;html=1;strokeColor=none;fillColor=none;align=center;verticalAlign=middle;whiteSpace=wrap;rounded=0;fontStyle=3;fontSize=14;" vertex="1" parent="1"><mxGeometry x="125" y="17012" width="40" height="20" as="geometry"/></mxCell><mxCell id="38" style="edgeStyle=orthogonalEdgeStyle;rounded=0;sketch=1;orthogonalLoop=1;jettySize=auto;html=1;startArrow=none;startFill=0;endArrow=classic;endFill=1;strokeColor=#000000;fontSize=14;" edge="1" parent="1" target="36"><mxGeometry relative="1" as="geometry"><mxPoint x="145" y="16976" as="sourcePoint"/></mxGeometry></mxCell></root></mxGraphModel></diagram></mxfile>